<svg width="14" height="14" viewBox="0 0 14 14" fill="none" xmlns="http://www.w3.org/2000/svg">
<path d="M2.47059 0V4.32354C2.47059 4.55096 2.65494 4.73531 2.88236 4.73531H4.39504C4.21717 5.1097 4.11767 5.52852 4.11767 5.97059C4.11767 6.37172 4.19557 6.78327 4.35047 7.20587H2.84703L0 4.35884V1.64705C0 0.737406 0.737406 0 1.64705 0L2.47059 0ZM3.29413 0H10.9118V3.7412L9.69823 4.95471C9.28741 3.86408 8.2343 3.08823 7 3.08823C6.21368 3.08823 5.50088 3.40309 4.98086 3.91366C4.96781 3.9124 4.95458 3.91177 4.94118 3.91177H3.29413V0ZM11.7353 0H12.3529C13.2626 0 14 0.737406 14 1.64705V8.02941H9.25879C9.67313 7.3133 9.88236 6.62793 9.88236 5.97059C9.88236 5.95886 9.88228 5.94716 9.88214 5.93548L11.6147 4.20293C11.6919 4.12571 11.7353 4.02098 11.7353 3.91177V0L11.7353 0ZM14 8.85295V12.3529C14 13.2626 13.2626 14 12.3529 14H10.7059V8.85295H14ZM9.88236 14H4.32354V9.88236H6.19899C6.36284 10.0498 6.53628 10.2188 6.71918 10.3894C6.87734 10.5369 7.12266 10.5369 7.28082 10.3894C7.84602 9.86229 8.32037 9.35044 8.70269 8.85292H9.88236V14ZM3.5 14H1.64705C0.737406 14 0 13.2626 0 12.3529V5.52349L2.3853 7.9088C2.46252 7.98602 2.56725 8.02941 2.67646 8.02941H4.74121C4.93577 8.36568 5.17554 8.70871 5.46011 9.05882H3.91177C3.68435 9.05882 3.5 9.24317 3.5 9.47059V14ZM9.05882 5.97059C9.05882 6.97561 8.38239 8.16479 7 9.51882C5.61761 8.16479 4.94118 6.97561 4.94118 5.97059C4.94118 4.83353 5.86294 3.91177 7 3.91177C8.13706 3.91177 9.05882 4.83353 9.05882 5.97059ZM7 7.20587C7.68223 7.20587 8.23528 6.65282 8.23528 5.97059C8.23528 5.28836 7.68223 4.73528 7 4.73528C6.31777 4.73528 5.76472 5.28834 5.76472 5.97056C5.76472 6.65279 6.31777 7.20587 7 7.20587ZM7 6.38236C6.77258 6.38236 6.58823 6.19801 6.58823 5.97059C6.58823 5.74317 6.77258 5.55882 7 5.55882C7.22742 5.55882 7.41177 5.74317 7.41177 5.97059C7.41177 6.19801 7.22742 6.38236 7 6.38236Z" fill="#7B51F7"/>
</svg>
