<svg width="15" height="15" viewBox="0 0 15 15" fill="none" xmlns="http://www.w3.org/2000/svg">
<path d="M12.5833 1.33333H11.3333V0.666667C11.3333 0.489856 11.2631 0.320286 11.1381 0.195262C11.013 0.0702379 10.8435 0 10.6667 0C10.4899 0 10.3203 0.0702379 10.1953 0.195262C10.0702 0.320286 10 0.489856 10 0.666667V1.33333H8V0.666667C8 0.489856 7.92976 0.320286 7.80474 0.195262C7.67971 0.0702379 7.51015 0 7.33333 0C7.15652 0 6.98695 0.0702379 6.86193 0.195262C6.73691 0.320286 6.66667 0.489856 6.66667 0.666667V1.33333H4.66667V0.666667C4.66667 0.489856 4.59643 0.320286 4.47141 0.195262C4.34638 0.0702379 4.17681 0 4 0C3.82319 0 3.65362 0.0702379 3.5286 0.195262C3.40357 0.320286 3.33333 0.489856 3.33333 0.666667V1.33333H2.08333C1.53102 1.33404 1.00152 1.55376 0.610974 1.94431C0.220426 2.33485 0.000705613 2.86435 0 3.41667V5.33333H14.6667V3.41667C14.666 2.86435 14.4462 2.33485 14.0557 1.94431C13.6651 1.55376 13.1357 1.33404 12.5833 1.33333Z" fill="#7B51F7"/>
<path d="M0 12.5834C0.000705613 13.1357 0.220426 13.6652 0.610974 14.0557C1.00152 14.4463 1.53102 14.666 2.08333 14.6667H12.5833C13.1357 14.666 13.6651 14.4463 14.0557 14.0557C14.4462 13.6652 14.666 13.1357 14.6667 12.5834V6.66669H0V12.5834ZM4.862 9.90469C4.98702 9.77971 5.15656 9.7095 5.33333 9.7095C5.51011 9.7095 5.67965 9.77971 5.80467 9.90469L6.66667 10.766L8.862 8.57135C8.98774 8.44992 9.15614 8.38272 9.33093 8.38424C9.50573 8.38576 9.67294 8.45587 9.79655 8.57947C9.92015 8.70308 9.99026 8.87029 9.99178 9.04509C9.9933 9.21988 9.92611 9.38829 9.80467 9.51402L7.138 12.1807C7.01298 12.3057 6.84344 12.3759 6.66667 12.3759C6.48989 12.3759 6.32035 12.3057 6.19533 12.1807L4.862 10.8474C4.73702 10.7223 4.66681 10.5528 4.66681 10.376C4.66681 10.1992 4.73702 10.0297 4.862 9.90469Z" fill="#7B51F7"/>
</svg>
