<svg width="12" height="16" viewBox="0 0 12 16" fill="none" xmlns="http://www.w3.org/2000/svg">
<g clip-path="url(#clip0_0_363)">
<path fill-rule="evenodd" clip-rule="evenodd" d="M9.11183 0.00970459C10.7027 0.00970459 11.9924 1.21994 11.9924 2.71258C11.9927 2.85858 11.9803 3.00438 11.9554 3.1485C11.9304 3.29252 11.8929 3.43456 11.8433 3.57305C11.7938 3.71153 11.7322 3.84615 11.6592 3.97534C11.5863 4.10464 11.5023 4.22819 11.4079 4.34485L9.11183 6.97534L7.00779 4.59404L6.81635 4.34527C6.72192 4.22861 6.63781 4.10506 6.5648 3.97587C6.4919 3.84657 6.43022 3.71205 6.38065 3.57357C6.33097 3.43508 6.29351 3.29305 6.2685 3.14892C6.24349 3.0048 6.23104 2.859 6.23138 2.71299C6.23138 1.21994 7.5211 0.0102268 9.11239 0.0102268L9.11183 0.00970459ZM9.11183 3.946C9.11194 3.946 9.11205 3.946 9.11216 3.946C9.11216 3.946 9.11228 3.946 9.11239 3.946H9.11183ZM7.79138 2.70694C7.79138 2.02245 8.38252 1.46735 9.11239 1.46735C9.84125 1.46735 10.4328 2.02245 10.4328 2.70694C10.4328 3.39132 9.84136 3.94589 9.11216 3.946C8.38241 3.94589 7.79138 3.39132 7.79138 2.70694ZM10.2116 8.03226H8.07781V10.1626L5.9454 7.75853L0.00741577 14.4524L1.98271 15.9952L5.9454 11.5285L9.9082 15.9952L11.8829 14.4524L10.2116 12.5679V8.03226Z" fill="#0468FF"/>
</g>
<defs>
<clipPath id="clip0_0_363">
<rect width="12" height="16" fill="white"/>
</clipPath>
</defs>
</svg>
