<svg width="14" height="14" viewBox="0 0 14 14" fill="none" xmlns="http://www.w3.org/2000/svg">
<g clip-path="url(#clip0_0_68)">
<path d="M2.18751 11.0833C1.55518 11.0833 1.02084 10.5204 1.02084 9.85421C1.02084 9.45579 1.20459 9.08071 1.51376 8.85088C1.66193 8.74004 1.75001 8.54988 1.75001 8.34163V5.10413C1.75001 4.86263 1.94601 4.66663 2.18751 4.66663C2.42901 4.66663 2.62501 4.86263 2.62501 5.10413V8.34163C2.62501 8.82404 2.40509 9.27671 2.03701 9.55204C1.94834 9.61796 1.89584 9.73054 1.89584 9.85421C1.89584 10.0572 2.04984 10.2083 2.18751 10.2083C2.34793 10.2083 2.47918 10.0496 2.47918 9.85421C2.47918 9.61271 2.67518 9.41671 2.91668 9.41671C3.15818 9.41671 3.35418 9.61271 3.35418 9.85421C3.35418 10.532 2.83093 11.0833 2.18751 11.0833Z" fill="#7B51F7"/>
<path d="M10.0625 14C9.821 14 9.625 13.804 9.625 13.5625V4.8125C9.625 4.571 9.821 4.375 10.0625 4.375C10.304 4.375 10.5 4.571 10.5 4.8125V13.5625C10.5 13.804 10.304 14 10.0625 14Z" fill="#7B51F7"/>
<path d="M8.02084 14C7.77934 14 7.58334 13.804 7.58334 13.5625V4.8125C7.58334 4.571 7.77934 4.375 8.02084 4.375C8.26234 4.375 8.45834 4.571 8.45834 4.8125V13.5625C8.45834 13.804 8.26234 14 8.02084 14Z" fill="#7B51F7"/>
<path d="M10.0625 12.9791C9.94117 12.9791 9.81984 12.929 9.73351 12.8298L7.69184 10.4965C7.53317 10.3145 7.55126 10.0385 7.73267 9.87929C7.91467 9.72062 8.19059 9.73754 8.35042 9.9207L10.3921 12.254C10.5508 12.436 10.5327 12.712 10.3513 12.8712C10.2678 12.9435 10.1652 12.9791 10.0625 12.9791Z" fill="#7B51F7"/>
<path d="M10.0625 10.3541C9.94117 10.3541 9.81984 10.304 9.73351 10.2048L7.69184 7.87145C7.53317 7.68945 7.55126 7.41354 7.73267 7.25429C7.91467 7.09562 8.19059 7.11254 8.35042 7.2957L10.3921 9.62904C10.5508 9.81104 10.5327 10.087 10.3513 10.2462C10.2678 10.3185 10.1652 10.3541 10.0625 10.3541Z" fill="#7B51F7"/>
<path d="M10.0625 7.72916C9.94117 7.72916 9.81984 7.679 9.73351 7.57983L7.69184 5.2465C7.53317 5.0645 7.55126 4.78858 7.73267 4.62933C7.91467 4.47066 8.19059 4.48816 8.35042 4.67075L10.3921 7.00408C10.5508 7.18608 10.5327 7.462 10.3513 7.62125C10.2678 7.69358 10.1652 7.72916 10.0625 7.72916Z" fill="#7B51F7"/>
<path d="M13.685 3.37171L10.185 2.35087C10.1687 2.34621 10.1523 2.35087 10.136 2.34854C10.1115 2.34387 10.0887 2.33337 10.0625 2.33337H8.02083C8.00975 2.33337 8.001 2.33862 7.9905 2.33979C7.98117 2.34037 7.97242 2.33629 7.96308 2.33746L0.37975 3.35829C0.161583 3.38746 0 3.57296 0 3.79171V4.81254C0 5.05404 0.196 5.25004 0.4375 5.25004H8.02083H10.0625H13.5625C13.804 5.25004 14 5.05404 14 4.81254V3.79171C14 3.59746 13.8717 3.42654 13.685 3.37171Z" fill="#7B51F7"/>
<path d="M9.04166 3.0625C8.80016 3.0625 8.60416 2.8665 8.60416 2.625V0.4375C8.60416 0.196 8.80016 0 9.04166 0C9.28316 0 9.47916 0.196 9.47916 0.4375V2.625C9.47916 2.8665 9.28316 3.0625 9.04166 3.0625Z" fill="#7B51F7"/>
<path d="M13.5625 7H11.9583C11.7168 7 11.5208 6.804 11.5208 6.5625V4.8125C11.5208 4.571 11.7168 4.375 11.9583 4.375H13.5625C13.804 4.375 14 4.571 14 4.8125V6.5625C14 6.804 13.804 7 13.5625 7Z" fill="#7B51F7"/>
<path d="M1.16668 4.09442C0.994592 4.09442 0.831259 3.99175 0.761842 3.82259C0.670842 3.59917 0.777592 3.34367 1.00101 3.25209L8.87601 0.032671C9.02359 -0.0279956 9.19276 -0.00291229 9.31701 0.0974211L13.1087 3.15992C13.2965 3.31159 13.3257 3.58692 13.1734 3.77534C13.0218 3.96375 12.7476 3.99234 12.558 3.84067L8.96817 0.940338L1.33234 4.06175C1.27751 4.08392 1.22209 4.09442 1.16668 4.09442Z" fill="#7B51F7"/>
</g>
<defs>
<clipPath id="clip0_0_68">
<rect width="14" height="14" fill="white"/>
</clipPath>
</defs>
</svg>
