<svg width="20" height="15" viewBox="0 0 20 15" fill="none" xmlns="http://www.w3.org/2000/svg">
<path d="M15.8359 0.106904L14.8335 1.0907C14.8335 1.0907 14.498 1.01507 14.265 0.901637L12.6944 0.137497C12.5036 0.0446864 12.2685 0 12.0289 0C11.6842 0 11.3291 0.0928104 11.0802 0.268807L8.65098 1.9724C8.22886 2.27111 8.13536 2.85513 8.44336 3.27071L8.58738 3.46527C8.78504 3.73133 9.10815 3.87673 9.43127 3.87673C9.61311 3.87673 9.79461 3.83101 9.9541 3.73476L11.1067 2.99916C11.3105 2.87644 11.5694 2.81594 11.8309 2.81594C12.1379 2.81594 12.4483 2.89947 12.6755 3.06275L14.3485 4.5955C14.7686 4.89765 15.4217 5.43354 15.8012 5.78519L17.3205 7.19729L20 4.0926L15.8359 0.106904Z" fill="#7B51F7"/>
<path d="M16.8527 8.33623L14.31 5.973C14.089 5.79357 13.5964 5.41648 13.5964 5.41648L12.0028 3.95695C11.9691 3.94423 11.9072 3.92945 11.8309 3.92945C11.7515 3.92945 11.6989 3.94561 11.6855 3.95145L10.5299 4.68809C10.2019 4.88609 9.8221 4.99024 9.43196 4.99024C8.74413 4.99024 8.09411 4.66816 7.69331 4.12779L7.54962 3.93426C7.22032 3.49015 7.08694 2.946 7.17425 2.40152C7.26122 1.85737 7.55787 1.38163 8.0123 1.06058L8.27389 0.877361C7.89646 0.831299 7.47778 0.871517 7.1715 1.00248C7.1715 1.00248 6.6583 1.22798 6.49364 1.29776C6.11209 1.45966 5.57723 1.45725 5.57723 1.45725L4.32188 0.287842L0 4.58084L1.62522 6.21534L1.9944 5.82863C2.37939 5.42473 2.92147 5.19271 3.48143 5.19271C4.01251 5.19271 4.51609 5.39414 4.89937 5.75954L5.07433 5.92625C5.29948 6.14109 5.46551 6.39409 5.57173 6.66702C5.90756 6.7533 6.21693 6.9238 6.47405 7.16888L6.64798 7.33526C7.04466 7.71269 7.27085 8.2228 7.28425 8.7721C7.40456 8.84635 7.51868 8.934 7.62284 9.03369L7.79883 9.20143C8.0453 9.43655 8.22061 9.71842 8.32373 10.0206C8.63516 10.1113 8.92219 10.2753 9.16143 10.5032L9.33949 10.6723C10.0552 11.355 10.1689 12.4347 9.66708 13.2435L9.80045 13.3679C10.1793 13.7203 10.7774 13.6986 11.1297 13.3198L11.2944 13.1421C11.6391 12.7709 11.6219 12.192 11.2644 11.8383L12.4837 12.9692C12.8632 13.3208 13.4613 13.2988 13.8136 12.9194L13.9783 12.7423C14.3282 12.3656 14.3076 11.7726 13.935 11.4196L14.2485 11.7111C14.6276 12.0631 15.2254 12.0407 15.5774 11.6619L15.7424 11.4846C16.0944 11.1051 16.072 10.507 15.6932 10.1546L15.4285 9.9092C15.8091 10.2413 16.3907 10.2158 16.7361 9.84355L16.9018 9.66583C17.2538 9.286 17.2322 8.68788 16.8527 8.33623Z" fill="#7B51F7"/>
<path d="M8.57041 11.4779L8.39442 11.3105C8.21292 11.1376 7.97918 11.0517 7.74543 11.0517C7.49725 11.0517 7.24907 11.149 7.06482 11.3422L7.06173 11.337C7.41819 10.9627 7.40409 10.3642 7.02976 10.0074L6.85411 9.84C6.6733 9.66812 6.44196 9.58288 6.20959 9.58288C5.97481 9.58288 5.74072 9.66984 5.55923 9.84137L5.91156 9.47219C6.26871 9.09786 6.25496 8.49905 5.87994 8.14225L5.70463 7.97485C5.52382 7.80229 5.29076 7.71704 5.05805 7.71704C4.8164 7.71704 4.57544 7.80882 4.39256 7.99066C4.68646 7.61529 4.65725 7.06874 4.30525 6.73291L4.13029 6.56585C3.94879 6.39294 3.71436 6.30701 3.48096 6.30701C3.23209 6.30666 2.98425 6.40429 2.8 6.59747L1.03351 8.44956C0.676705 8.82355 0.690799 9.42235 1.06617 9.77881L1.24079 9.94587C1.42125 10.1177 1.65293 10.202 1.88427 10.202C2.09774 10.202 2.31086 10.1301 2.4841 9.98849L2.01868 10.4759C1.66222 10.8506 1.67631 11.4487 2.0503 11.8059L2.22664 11.9733C2.40814 12.1462 2.64223 12.2321 2.87528 12.2321C3.12415 12.2321 3.37199 12.1348 3.55624 11.9416L3.91957 11.5604C3.59611 11.9361 3.61777 12.5071 3.98042 12.8526L4.15676 13.02C4.33791 13.1925 4.572 13.2785 4.80574 13.2785C5.05427 13.2785 5.30245 13.1812 5.48635 12.988L6.07037 12.3837C5.71322 12.7584 5.72697 13.3565 6.102 13.7136L6.27799 13.881C6.4588 14.0539 6.69255 14.1399 6.92629 14.1399C7.17482 14.1399 7.423 14.0426 7.6069 13.8494L8.60204 12.8065C8.95919 12.4332 8.9444 11.8351 8.57041 11.4779Z" fill="#7B51F7"/>
</svg>
