<svg width="15" height="14" viewBox="0 0 15 14" fill="none" xmlns="http://www.w3.org/2000/svg">
<path d="M5.00873 7.49989C5.28488 7.49989 5.50874 7.27603 5.50874 6.99988C5.50874 6.72374 5.28488 6.49988 5.00873 6.49988C4.73259 6.49988 4.50873 6.72374 4.50873 6.99988C4.50873 7.27603 4.73259 7.49989 5.00873 7.49989Z" fill="#7B51F7"/>
<path d="M9.00876 11C9.28491 11 9.50877 10.7762 9.50877 10.5C9.50877 10.2239 9.28491 10 9.00876 10C8.73262 10 8.50876 10.2239 8.50876 10.5C8.50876 10.7762 8.73262 11 9.00876 11Z" fill="#7B51F7"/>
<path d="M13.8318 5.6184L7.33175 0.118333C7.24147 0.0419272 7.12702 0 7.00875 0C6.89047 0 6.77602 0.0419272 6.68574 0.118333L0.185662 5.6184C0.133857 5.66028 0.0909426 5.71209 0.0594402 5.77079C0.0279378 5.82948 0.00848232 5.89389 0.00221662 5.96021C-0.00404909 6.02653 0.00300122 6.09343 0.0229535 6.15699C0.0429058 6.22055 0.0753578 6.27948 0.118403 6.33032C0.161449 6.38116 0.21422 6.42289 0.273617 6.45305C0.333014 6.48322 0.39784 6.5012 0.464286 6.50596C0.530733 6.51072 0.59746 6.50216 0.66055 6.48077C0.723639 6.45938 0.781818 6.4256 0.83167 6.38141L1.50868 5.8084V12.5C1.50868 12.8978 1.66672 13.2793 1.94802 13.5607C2.22933 13.842 2.61087 14 3.0087 14H11.0088C11.4066 14 11.7882 13.842 12.0695 13.5607C12.3508 13.2793 12.5088 12.8978 12.5088 12.5V5.8084L13.1858 6.38141C13.2357 6.4256 13.2939 6.45938 13.3569 6.48077C13.42 6.50216 13.4868 6.51072 13.5532 6.50596C13.6197 6.5012 13.6845 6.48322 13.7439 6.45305C13.8033 6.42289 13.856 6.38116 13.8991 6.33032C13.9421 6.27948 13.9746 6.22055 13.9945 6.15699C14.0145 6.09343 14.0215 6.02653 14.0153 5.96021C14.009 5.89389 13.9896 5.82948 13.9581 5.77079C13.9265 5.71209 13.8836 5.66028 13.8318 5.6184ZM3.5087 6.99992C3.5087 6.70324 3.59668 6.41323 3.7615 6.16655C3.92633 5.91987 4.1606 5.72761 4.43469 5.61408C4.70878 5.50055 5.01038 5.47084 5.30136 5.52872C5.59233 5.5866 5.85961 5.72946 6.06939 5.93924C6.27918 6.14902 6.42204 6.4163 6.47992 6.70728C6.5378 6.99825 6.50809 7.29986 6.39456 7.57395C6.28102 7.84804 6.08876 8.08231 5.84209 8.24714C5.59541 8.41196 5.3054 8.49993 5.00872 8.49993C4.61089 8.49993 4.22936 8.3419 3.94805 8.06059C3.66674 7.77928 3.5087 7.39775 3.5087 6.99992ZM5.00872 11.5C4.91224 11.5001 4.8178 11.4723 4.73677 11.4199C4.65574 11.3676 4.59158 11.2929 4.55205 11.2049C4.51251 11.1169 4.49928 11.0193 4.51395 10.9239C4.52862 10.8286 4.57056 10.7395 4.63472 10.6675L8.63477 6.16741C8.72295 6.06795 8.84703 6.0076 8.97972 5.99963C9.1124 5.99165 9.24282 6.03672 9.34227 6.12491C9.44173 6.21309 9.50208 6.33717 9.51005 6.46986C9.51802 6.60254 9.47296 6.73296 9.38478 6.83241L5.38473 11.3325C5.33753 11.3855 5.27959 11.4278 5.21476 11.4567C5.14993 11.4856 5.07969 11.5003 5.00872 11.5ZM9.00877 12C8.71209 12 8.42208 11.912 8.1754 11.7472C7.92873 11.5824 7.73647 11.3481 7.62293 11.074C7.5094 10.7999 7.47969 10.4983 7.53757 10.2073C7.59545 9.91634 7.73831 9.64907 7.9481 9.43928C8.15788 9.2295 8.42516 9.08664 8.71613 9.02876C9.00711 8.97088 9.30871 9.00059 9.5828 9.11412C9.85689 9.22765 10.0912 9.41992 10.256 9.66659C10.4208 9.91327 10.5088 10.2033 10.5088 10.5C10.5088 10.8978 10.3508 11.2793 10.0694 11.5606C9.78814 11.8419 9.4066 12 9.00877 12Z" fill="#7B51F7"/>
</svg>
