<svg width="65" height="35" viewBox="0 0 65 35" fill="none" xmlns="http://www.w3.org/2000/svg">
<mask id="mask0_0_5" style="mask-type:luminance" maskUnits="userSpaceOnUse" x="0" y="0" width="65" height="35">
<path d="M64.9485 0H0V35H64.9485V0Z" fill="white"/>
</mask>
<g mask="url(#mask0_0_5)">
<path d="M32.4584 19.1202V22.3772C32.4584 22.6303 32.2557 22.8328 32.0024 22.8328H21.6843C21.431 22.8328 21.2283 23.0353 21.2283 23.3054L21.279 25.2967C21.279 25.5498 21.4816 25.7355 21.7349 25.7355H28.912C29.1654 25.7355 29.368 25.938 29.368 26.1911V29.4481C29.368 29.7012 29.1654 29.9037 28.912 29.9037H21.7349C21.4816 29.9037 21.279 30.1062 21.279 30.3425L21.2115 34.5276C21.2115 34.7808 21.0088 34.9664 20.7555 34.9664H17.4456C17.1923 34.9664 16.9896 34.7639 16.9896 34.5108V19.1033C16.9896 18.8502 17.1923 18.6477 17.4456 18.6477H31.9855C32.2557 18.6646 32.4584 18.8671 32.4584 19.1202Z" fill="black"/>
<path d="M38.5189 30.7135L39.8024 30.7304C40.0557 30.7304 40.2415 30.9328 40.2415 31.186V34.4598C40.2415 34.713 40.0387 34.9155 39.7854 34.9155L34.331 34.8818C34.0777 34.8818 33.8751 34.6793 33.8751 34.4261V19.1368C33.8751 18.8837 34.0777 18.6812 34.331 18.6812H37.5902C37.8435 18.6812 38.0463 18.8837 38.0463 19.1368V30.2578C38.0798 30.511 38.2656 30.7135 38.5189 30.7135Z" fill="black"/>
<path d="M45.7309 34.9487H42.4719C42.2182 34.9487 42.0158 34.7462 42.0158 34.4931V27.0003C42.0158 26.7472 42.2182 26.5447 42.4719 26.5447H45.7309C45.9842 26.5447 46.1869 26.7472 46.1869 27.0003V34.4931C46.1869 34.7293 45.9842 34.9487 45.7309 34.9487Z" fill="black"/>
<path d="M53.8535 34.9996H50.5942C50.3409 34.9996 50.1385 34.797 50.1385 34.5439V19.1702C50.1385 18.9171 50.3409 18.7146 50.5942 18.7146H58.4977C59.5109 18.7146 60.4732 18.934 61.3854 19.3896C62.2972 19.8452 63.074 20.4359 63.7665 21.1953C64.4419 21.9378 64.9655 23.0854 64.9655 24.0304C64.9821 26.6124 64.4419 27.5912 63.7834 28.3337C63.1076 29.0762 62.3311 29.65 61.4189 30.1056C60.5071 30.5444 59.5444 30.7807 58.4977 30.7975C57.7883 30.8144 57.0959 30.8313 56.4035 30.8144C55.8629 30.7975 55.3228 30.7975 54.7653 30.7975C54.512 30.7975 54.3096 31 54.3096 31.2532V34.5608C54.3096 34.797 54.1068 34.9996 53.8535 34.9996ZM54.3096 26.1399C54.3096 26.393 54.512 26.5955 54.7653 26.5955H58.3454C58.8185 26.5955 60.1189 26.4605 60.4732 26.1567C61.6553 25.1779 61.0812 23.8954 60.4732 23.406C59.7808 22.866 58.7171 22.866 58.244 22.866H54.7653C54.512 22.866 54.3096 23.0685 54.3096 23.3216V26.1399Z" fill="black"/>
<path d="M13.7631 10.3783C12.8006 11.0871 11.8211 11.7959 10.8247 12.5046C10.6728 12.6228 10.4532 12.6228 10.3012 12.5046C9.30488 11.7959 8.32542 11.0871 7.36285 10.3783C6.53537 9.78767 5.72478 9.18015 4.8973 8.57262C4.59334 8.35324 4.17117 8.55574 4.17117 8.94388V15.8629C4.17117 16.116 3.9685 16.3185 3.7152 16.3185H0.455956C0.202647 16.3185 0 16.116 0 15.8629V0.759212C0 0.387949 0.422183 0.168568 0.726153 0.387949C2.24601 1.50174 3.76586 2.59865 5.28573 3.69557C6.94068 4.89373 8.61253 6.10877 10.2843 7.3407C10.4364 7.45883 10.6559 7.45883 10.8247 7.3407C12.4966 6.10877 14.1684 4.89373 15.8403 3.69557C17.3601 2.59865 18.88 1.50174 20.3999 0.387949C20.7038 0.168568 21.126 0.387949 21.126 0.759212V15.8629C21.126 16.116 20.9233 16.3185 20.67 16.3185H17.3939C17.1406 16.3185 16.938 16.116 16.938 15.8629V8.94388C16.938 8.57262 16.5158 8.35324 16.2118 8.57262C15.4012 9.18015 14.5737 9.78767 13.7631 10.3783Z" fill="black"/>
<path d="M38.7369 9.07907C38.2473 9.72033 37.6732 10.2941 36.9808 10.7835C36.5247 11.121 36.0182 11.391 35.4947 11.5936C35.1738 11.7285 35.1063 12.1504 35.3765 12.3698L39.2435 15.5087C39.5813 15.7787 39.3788 16.3187 38.9567 16.3187H35.3765C35.2751 16.3187 35.1738 16.285 35.0894 16.2174L29.9725 12.1842C29.8881 12.1167 29.7868 12.0829 29.6855 12.0829H27.4395C27.1861 12.0829 26.9835 12.2854 26.9835 12.5386V15.8631C26.9835 16.1162 26.7809 16.3187 26.5276 16.3187H23.3021C23.0488 16.3187 22.8461 16.1162 22.8461 15.8631V0.455642C22.8461 0.202507 23.0488 0 23.3021 0H33.046C33.0629 0 33.0629 0 33.0798 0C34.0762 0.0675024 35.8156 0.320636 36.6936 0.742527C38.9736 1.83944 39.4463 2.85198 39.6657 4.80954C39.936 6.95273 39.2269 8.43781 38.7369 9.07907ZM33.198 7.91466C33.6033 7.91466 34.4814 7.91466 34.9543 7.10464C35.3258 6.4465 35.1232 5.3327 34.9036 4.96141C34.4477 4.16828 33.3331 4.18513 32.8603 4.16828H27.4732C27.2199 4.16828 27.0173 4.37078 27.0173 4.62393V7.45901C27.0173 7.71216 27.2199 7.91466 27.4732 7.91466H33.198Z" fill="black"/>
<path d="M40.8338 24.2501H47.3691C47.7407 24.2501 47.9601 23.8282 47.7237 23.5245L44.4475 19.2043C44.262 18.968 43.9073 18.968 43.7215 19.2043L40.4452 23.5245C40.2428 23.8282 40.4622 24.2501 40.8338 24.2501Z" fill="url(#paint0_linear_0_5)"/>
<path d="M47.3679 11.1726H40.8326C40.461 11.1726 40.2416 11.5945 40.4779 11.8983L43.7373 16.2184C43.9231 16.4547 44.2774 16.4547 44.4632 16.2184L47.7395 11.8983C47.9589 11.5945 47.7395 11.1726 47.3679 11.1726Z" fill="url(#paint1_linear_0_5)"/>
</g>
<defs>
<linearGradient id="paint0_linear_0_5" x1="44.0166" y1="13.2809" x2="44.0989" y2="23.1912" gradientUnits="userSpaceOnUse">
<stop stop-color="#7B51F7"/>
<stop offset="0.1747" stop-color="#7A55F6"/>
<stop offset="0.3541" stop-color="#7761F3"/>
<stop offset="0.5356" stop-color="#7276EF"/>
<stop offset="0.7187" stop-color="#6B93E8"/>
<stop offset="0.9013" stop-color="#62B8E0"/>
<stop offset="0.9973" stop-color="#5DCEDB"/>
</linearGradient>
<linearGradient id="paint1_linear_0_5" x1="44.1814" y1="6.26593" x2="43.9729" y2="20.537" gradientUnits="userSpaceOnUse">
<stop stop-color="#7B51F7"/>
<stop offset="0.1747" stop-color="#7A55F6"/>
<stop offset="0.3541" stop-color="#7761F3"/>
<stop offset="0.5356" stop-color="#7276EF"/>
<stop offset="0.7187" stop-color="#6B93E8"/>
<stop offset="0.9013" stop-color="#62B8E0"/>
<stop offset="0.9973" stop-color="#5DCEDB"/>
</linearGradient>
</defs>
</svg>
