<svg width="14" height="16" viewBox="0 0 14 16" fill="none" xmlns="http://www.w3.org/2000/svg">
<path d="M7 0C4.20109 0 1.86667 2.25462 1.86667 5.13333C1.86667 6.22851 2.19576 7.20508 2.82735 8.12019L6.60716 14.0182C6.79053 14.305 7.20985 14.3044 7.39284 14.0182L11.1891 8.10012C11.807 7.22649 12.1333 6.20066 12.1333 5.13333C12.1333 2.30281 9.83052 0 7 0ZM7 7.46667C5.71346 7.46667 4.66667 6.41987 4.66667 5.13333C4.66667 3.8468 5.71346 2.8 7 2.8C8.28654 2.8 9.33334 3.8468 9.33334 5.13333C9.33334 6.41987 8.28654 7.46667 7 7.46667Z" fill="#7B51F7"/>
<path d="M10.6482 10.7239L8.29836 14.3977C7.69011 15.346 6.3065 15.3429 5.70117 14.3986L3.34749 10.7248C1.27661 11.2036 0 12.0808 0 13.1289C0 14.9477 3.60665 15.9289 7 15.9289C10.3934 15.9289 14 14.9477 14 13.1289C14 12.08 12.7216 11.2024 10.6482 10.7239Z" fill="#7B51F7"/>
</svg>
