<svg width="16" height="16" viewBox="0 0 16 16" fill="none" xmlns="http://www.w3.org/2000/svg">
<path d="M9.00418 9.975C11.7633 9.975 13.9917 7.74194 13.9917 4.9875C13.9917 2.23738 11.7543 0 9.00418 0H3.98333C3.72446 0 3.51458 0.209875 3.51458 0.46875V7.02916H2.47708C2.21821 7.02916 2.00833 7.23903 2.00833 7.49791V9.50625C2.00833 9.76513 2.21821 9.975 2.47708 9.975H3.51458V11.0458H2.47708C2.21821 11.0458 2.00833 11.2557 2.00833 11.5146V13.5229C2.00833 13.7818 2.21821 13.9917 2.47708 13.9917H3.51458V15.5312C3.51458 15.7901 3.72446 16 3.98333 16H5.99167C6.25055 16 6.46042 15.7901 6.46042 15.5312V13.9917H9.50624C9.76511 13.9917 9.97499 13.7818 9.97499 13.5229V11.5146C9.97499 11.2557 9.76511 11.0458 9.50624 11.0458H6.46039V9.975H9.00418ZM6.46039 2.94584H9.00414C10.1299 2.94584 11.0458 3.86175 11.0458 4.9875C11.0458 6.11325 10.1299 7.02916 9.00414 7.02916H6.46039V2.94584Z" fill="#7B51F7"/>
</svg>
