<svg width="16" height="16" viewBox="0 0 16 16" fill="none" xmlns="http://www.w3.org/2000/svg">
<path d="M8.76193 15.2381V15.6191C8.76163 15.72 8.7214 15.8167 8.65002 15.8881C8.57864 15.9595 8.48192 15.9997 8.38097 16H7.04764V15.2381C7.04764 15.1371 7.0075 15.0402 6.93606 14.9687C6.86462 14.8973 6.76772 14.8572 6.66669 14.8572C6.56565 14.8572 6.46876 14.8973 6.39731 14.9687C6.32587 15.0402 6.28573 15.1371 6.28573 15.2381V16H2.47621V15.2381C2.47621 15.1371 2.43607 15.0402 2.36463 14.9687C2.29319 14.8973 2.19629 14.8572 2.09526 14.8572C1.99422 14.8572 1.89733 14.8973 1.82588 14.9687C1.75444 15.0402 1.71431 15.1371 1.71431 15.2381V16H0.380972C0.280028 15.9997 0.183301 15.9595 0.111922 15.8881C0.0405424 15.8167 0.000312557 15.72 2.0082e-05 15.6191V15.2381C-0.00199619 14.5891 0.147842 13.9486 0.437559 13.3678C0.727275 12.7871 1.14884 12.2821 1.66855 11.8934C1.80936 11.7851 1.98367 11.7296 2.16117 11.7366C2.33866 11.7435 2.50809 11.8125 2.63999 11.9314C3.12146 12.3523 3.74155 12.5803 4.38097 12.5714C5.02039 12.5803 5.64048 12.3523 6.12195 11.9314C6.25385 11.8125 6.42328 11.7435 6.60077 11.7366C6.77826 11.7296 6.95257 11.7851 7.09338 11.8934C7.61309 12.2821 8.03466 12.7871 8.32438 13.3678C8.6141 13.9486 8.76394 14.5891 8.76193 15.2381Z" fill="#7B51F7"/>
<path d="M4.38096 4.95242C2.701 4.95242 1.33334 6.49146 1.33334 8.38099C1.33334 10.2705 2.701 11.8096 4.38096 11.8096C6.06102 11.8096 7.42858 10.2705 7.42858 8.38099C7.42858 6.49146 6.06102 4.95242 4.38096 4.95242ZM4.38096 11.0477C3.23049 11.0477 2.27811 10.0534 2.12194 8.76194H3.80191C3.92428 8.76141 4.04477 8.73177 4.15341 8.67546C4.26206 8.61916 4.35574 8.5378 4.42673 8.43813L5.13525 7.4248L5.27996 8.14861C5.31452 8.32132 5.40776 8.47675 5.54387 8.58854C5.67998 8.70033 5.85057 8.7616 6.0267 8.76194H6.63998C6.48382 10.0534 5.53144 11.0477 4.38096 11.0477Z" fill="#7B51F7"/>
<path d="M13.7524 13.1124L11.6801 9.52383C12.3673 8.98295 12.911 8.28136 13.2632 7.48087C13.6154 6.68039 13.7653 5.80557 13.6998 4.93348C13.6343 4.06139 13.3553 3.2188 12.8874 2.47993C12.4196 1.74106 11.7772 1.12859 11.0168 0.696477C10.2565 0.264362 9.40156 0.0258622 8.52734 0.00198788C7.65312 -0.0218864 6.78644 0.169598 6.00365 0.559572C5.22087 0.949546 4.546 1.52604 4.0385 2.23827C3.531 2.9505 3.20644 3.77661 3.09341 4.64383C3.50027 4.46959 3.93838 4.38015 4.38097 4.38097C4.61142 4.38163 4.84118 4.40588 5.06669 4.45335C5.2354 3.81837 5.58302 3.24525 6.06817 2.8022C6.55332 2.35915 7.15556 2.06484 7.8032 1.95431C8.45085 1.84378 9.11661 1.92167 9.72125 2.17872C10.3259 2.43577 10.8439 2.86115 11.2137 3.40423C11.5835 3.9473 11.7894 4.58519 11.807 5.24196C11.8246 5.89874 11.653 6.54673 11.3128 7.1088C10.9726 7.67088 10.4781 8.12336 9.88808 8.41238C9.29806 8.70141 8.63741 8.8148 7.98478 8.73906C7.93593 9.38878 7.73777 10.0185 7.40573 10.5791C7.72756 10.6372 8.05393 10.6665 8.38097 10.6667C8.79661 10.6662 9.21079 10.6176 9.61526 10.5219L11.7714 14.2553C11.8845 14.4511 12.053 14.609 12.2558 14.709C12.4585 14.8091 12.6864 14.8468 12.9106 14.8175C13.1348 14.7881 13.3452 14.693 13.5154 14.5441C13.6856 14.3952 13.8078 14.1993 13.8667 13.981C13.9062 13.8359 13.9165 13.6843 13.8968 13.5352C13.8772 13.3861 13.8282 13.2424 13.7524 13.1124Z" fill="#7B51F7"/>
<path d="M15.6191 7.61906H14.4762C14.3752 7.61906 14.2783 7.57892 14.2068 7.50748C14.1354 7.43604 14.0952 7.33914 14.0952 7.23811C14.0952 7.13707 14.1354 7.04018 14.2068 6.96873C14.2783 6.89729 14.3752 6.85715 14.4762 6.85715H15.6191C15.7201 6.85715 15.817 6.89729 15.8884 6.96873C15.9599 7.04018 16 7.13707 16 7.23811C16 7.33914 15.9599 7.43604 15.8884 7.50748C15.817 7.57892 15.7201 7.61906 15.6191 7.61906Z" fill="#7B51F7"/>
<path d="M15.6191 9.14285H13.7143C13.6133 9.14285 13.5164 9.10272 13.4449 9.03127C13.3735 8.95983 13.3333 8.86293 13.3333 8.7619C13.3333 8.66086 13.3735 8.56397 13.4449 8.49253C13.5164 8.42108 13.6133 8.38095 13.7143 8.38095H15.6191C15.7201 8.38095 15.817 8.42108 15.8884 8.49253C15.9599 8.56397 16 8.66086 16 8.7619C16 8.86293 15.9599 8.95983 15.8884 9.03127C15.817 9.10272 15.7201 9.14285 15.6191 9.14285Z" fill="#7B51F7"/>
<path d="M15.6191 12.1904H14.0953C13.9942 12.1904 13.8973 12.1503 13.8259 12.0789C13.7545 12.0074 13.7143 11.9105 13.7143 11.8095C13.7143 11.7085 13.7545 11.6116 13.8259 11.5401C13.8973 11.4687 13.9942 11.4285 14.0953 11.4285H15.6191C15.7201 11.4285 15.817 11.4687 15.8885 11.5401C15.9599 11.6116 16 11.7085 16 11.8095C16 11.9105 15.9599 12.0074 15.8885 12.0789C15.817 12.1503 15.7201 12.1904 15.6191 12.1904Z" fill="#7B51F7"/>
<path d="M15.6191 10.6666H13.3333C13.2323 10.6666 13.1354 10.6265 13.064 10.5551C12.9925 10.4836 12.9524 10.3867 12.9524 10.2857C12.9524 10.1847 12.9925 10.0878 13.064 10.0163C13.1354 9.94488 13.2323 9.90474 13.3333 9.90474H15.6191C15.7201 9.90474 15.817 9.94488 15.8884 10.0163C15.9599 10.0878 16 10.1847 16 10.2857C16 10.3867 15.9599 10.4836 15.8884 10.5551C15.817 10.6265 15.7201 10.6666 15.6191 10.6666Z" fill="#7B51F7"/>
</svg>
