<svg width="16" height="14" viewBox="0 0 16 14" fill="none" xmlns="http://www.w3.org/2000/svg">
<path d="M13.6664 2.37373C12.1589 0.852537 10.1214 0 8.00103 0C3.5781 0 0 3.61075 0 8.05731C0 10.197 0.84483 12.2531 2.33571 13.7743C2.63388 14.0752 3.09771 14.0752 3.37932 13.7743L4.0088 13.1391L4.63828 12.5039C4.93646 12.203 4.93646 11.7349 4.63828 11.4507C4.34011 11.1666 3.87628 11.1498 3.59467 11.4507L2.96519 12.086C2.23631 11.1498 1.77249 10.0131 1.63996 8.82627H2.55105C2.96519 8.82627 3.29649 8.49194 3.29649 8.07403C3.29649 7.87343 3.21367 7.67284 3.08114 7.5391C2.94862 7.40537 2.7664 7.32179 2.55105 7.32179H1.63996C1.77249 6.13493 2.23631 4.99821 2.96519 4.06209L3.59467 4.69731C3.89284 4.99821 4.35667 4.99821 4.63828 4.69731C4.91989 4.39642 4.93645 3.92836 4.63828 3.64418L4.02536 3.00896C4.95302 2.25672 6.07946 1.78866 7.2556 1.65493V2.55761C7.2556 2.97552 7.5869 3.30985 8.00103 3.30985C8.19982 3.30985 8.3986 3.22627 8.53112 3.09254C8.66364 2.95881 8.74647 2.77493 8.74647 2.55761V1.65493C9.92261 1.78866 11.049 2.25672 11.9767 3.00896L11.3472 3.64418C11.049 3.94507 11.049 4.41313 11.3472 4.69731C11.6454 4.98149 12.1092 4.99821 12.3908 4.69731L13.0203 4.06209C14.8591 6.4191 14.8591 9.72896 13.0203 12.0693L12.3743 11.4173C12.0761 11.1164 11.6123 11.1164 11.3307 11.4173C11.049 11.7182 11.0325 12.1863 11.3307 12.4704L11.9767 13.1057L12.6062 13.7409C12.9044 14.0418 13.3682 14.0418 13.6498 13.7409C16.7806 10.6316 16.7806 5.51642 13.6664 2.37373ZM12.5896 7.35522L9.42565 7.00418C9.32626 6.87045 9.2103 6.75343 9.07778 6.65313C8.29921 6.06806 7.18933 6.21851 6.60955 7.00418C6.02976 7.78985 6.17885 8.90985 6.95742 9.49492C7.73599 10.08 8.84586 9.92955 9.42565 9.14388L12.5896 8.79284C12.9209 8.7594 13.186 8.49194 13.2191 8.15761C13.2522 7.75642 12.9706 7.40537 12.5896 7.35522Z" fill="#7B51F7"/>
</svg>
