<svg width="21" height="21" viewBox="0 0 21 21" fill="none" xmlns="http://www.w3.org/2000/svg">
<path d="M10.5002 2.57703C4.70124 2.57703 0 7.32288 0 13.1772C0 16.3516 1.36993 18.4219 1.36993 18.4219L19.6261 18.4228C19.6261 18.4228 21 16.1602 21 13.177C21 7.32288 16.2988 2.57703 10.5002 2.57703ZM18.856 17.1314L2.17767 17.1242C2.17767 17.1242 1.28896 15.4412 1.28896 13.1438C1.28896 8.01268 5.42867 3.85277 10.5354 3.85277C15.642 3.85277 19.7819 8.01246 19.7819 13.1438C19.7821 15.4671 18.856 17.1314 18.856 17.1314Z" fill="#333333" fill-opacity="0.4"/>
<path d="M13.4676 5.39194L13.3358 5.39172L10.535 10.88L7.63342 5.34485L3.66071 15.3442H2.63403V16.1473H8.25853V15.3442H7.14252L8.25853 12.2191L10.535 16.1473L12.7224 12.2191L13.8381 15.3442H12.7224V16.1473H18.302V15.3442H17.3354L13.4676 5.39194Z" fill="#333333" fill-opacity="0.4"/>
</svg>
